<svg width="152" height="18" viewBox="0 0 152 18" fill="none" xmlns="http://www.w3.org/2000/svg">
<g clip-path="url(#clip0_19_14)">
<path d="M58.0014 0.631959H56.9738C56.9365 0.631011 56.8995 0.637974 56.8648 0.652427C56.8302 0.666879 56.7987 0.688519 56.7724 0.716035C56.746 0.743551 56.7252 0.776369 56.7114 0.812499C56.6975 0.848629 56.6908 0.887317 56.6918 0.926219V13.7475C56.6918 13.8947 56.6112 13.9367 56.4903 13.8316L43.2725 0.779089C43.0106 0.505848 42.5673 0.568903 42.5673 0.9052V17.1525C42.5673 17.3207 42.6479 17.4468 42.8091 17.4468H43.877C44.0382 17.4468 44.1389 17.3207 44.1389 17.1525V4.28919C44.1389 4.14206 44.2397 4.10002 44.3404 4.20511L57.5582 17.2997C57.7999 17.5519 58.2634 17.5309 58.2634 17.1525V0.926219C58.2634 0.758071 58.1626 0.631959 58.0014 0.631959Z" fill="white"/>
<path d="M27.778 0.716031C27.6974 0.547883 27.5765 0.547883 27.4959 0.716031L19.7587 17.1946C19.6982 17.3417 19.7587 17.4468 19.8997 17.4468H21.1288C21.2497 17.4468 21.4109 17.3837 21.4714 17.2366L22.9285 14.1469H32.2882L33.7219 17.2366C33.7824 17.3837 33.9234 17.4468 34.0645 17.4468H35.2734C35.4144 17.4468 35.495 17.3417 35.4144 17.1946L27.778 0.716031ZM27.516 4.4153C27.5765 4.28919 27.6974 4.28919 27.7578 4.4153L31.5463 12.5495H23.6356L27.516 4.4153Z" fill="white"/>
<path d="M16.1319 0.631958H14.9229C14.7819 0.631958 14.6207 0.673995 14.5602 0.821125L8.59614 13.6635C8.5357 13.7896 8.4551 13.7896 8.39465 13.6635L2.30966 0.821125C2.24922 0.673995 2.08803 0.631958 1.96713 0.631958H0.758194C0.617151 0.631958 0.556704 0.737051 0.617151 0.884181L8.37451 17.3207C8.4551 17.4888 8.5357 17.4888 8.61629 17.3207L16.2729 0.884181C16.3333 0.737051 16.2729 0.631958 16.1319 0.631958Z" fill="white"/>
<path d="M151.11 0.631967H135.938C135.797 0.631967 135.696 0.758078 135.696 0.905208V17.1526C135.696 17.3207 135.776 17.4468 135.938 17.4468H137.006C137.167 17.4468 137.267 17.3207 137.267 17.1526V10.0903C137.267 9.90115 137.368 9.81708 137.55 9.81708H143.977C144.014 9.81803 144.051 9.81106 144.086 9.79661C144.121 9.78216 144.152 9.76052 144.179 9.733C144.205 9.70549 144.226 9.67267 144.24 9.63654C144.253 9.60041 144.26 9.56172 144.259 9.52282V8.49291C144.259 8.32476 144.138 8.21967 143.977 8.21967H137.55C137.368 8.21967 137.267 8.11457 137.267 7.92541V2.52364C137.267 2.33447 137.368 2.22938 137.55 2.22938H151.11C151.271 2.22938 151.392 2.08225 151.392 1.9141V0.926227C151.393 0.887325 151.386 0.848636 151.372 0.812507C151.358 0.776377 151.338 0.743559 151.311 0.716043C151.285 0.688527 151.253 0.666887 151.219 0.652435C151.184 0.637982 151.147 0.631019 151.11 0.631967Z" fill="white"/>
<path d="M82.2608 0.631958H81.1526C80.9914 0.631958 80.8705 0.673995 80.8101 0.821125L74.8258 13.6635C74.7654 13.7896 74.6646 13.7896 74.6042 13.6635L68.6401 0.821125C68.5595 0.652977 68.4386 0.631958 68.2976 0.631958H67.1692C67.008 0.631958 66.9073 0.758069 66.9073 0.926218V17.1525C66.9073 17.3207 67.008 17.4468 67.1692 17.4468H68.2371C68.3983 17.4468 68.4789 17.3207 68.4789 17.1525V4.20511L74.6042 17.3417C74.6646 17.4888 74.7654 17.4888 74.8258 17.3417L80.9511 4.18409V17.1525C80.9511 17.3207 81.0519 17.4468 81.2131 17.4468H82.2608C82.422 17.4468 82.5227 17.3207 82.5227 17.1525V0.926218C82.5227 0.758069 82.422 0.631958 82.2608 0.631958Z" fill="white"/>
<path d="M120.604 0.526871C116.232 0.526871 112.645 4.35225 112.645 9.03939C112.645 13.7265 116.232 17.5519 120.604 17.5519C124.997 17.5519 128.583 13.7265 128.583 9.03939C128.583 4.35225 124.997 0.526871 120.604 0.526871ZM120.604 15.8704C117.119 15.8704 114.257 12.8017 114.257 9.03939C114.257 5.27707 117.119 2.20836 120.604 2.20836C124.11 2.20836 126.971 5.27707 126.971 9.03939C126.971 12.8017 124.11 15.8704 120.604 15.8704Z" fill="white"/>
<path d="M97.6143 0.526871C93.242 0.526871 89.6555 4.35225 89.6555 9.03939C89.6555 13.7265 93.242 17.5519 97.6143 17.5519C102.007 17.5519 105.593 13.7265 105.593 9.03939C105.593 4.35225 102.007 0.526871 97.6143 0.526871ZM97.6143 15.8704C94.1285 15.8704 91.2674 12.8017 91.2674 9.03939C91.2674 5.27707 94.1285 2.20836 97.6143 2.20836C101.12 2.20836 103.981 5.27707 103.981 9.03939C103.981 12.8017 101.12 15.8704 97.6143 15.8704Z" fill="white"/>
</g>
<defs>
<clipPath id="clip0_19_14">
<rect width="152" height="18" fill="white"/>
</clipPath>
</defs>
</svg>
